<?xml version="1.0" standalone="no"?>
<!DOCTYPE svg PUBLIC "-//W3C//DTD SVG 20010904//EN"
 "http://www.w3.org/TR/2001/REC-SVG-20010904/DTD/svg10.dtd">
<svg version="1.0" xmlns="http://www.w3.org/2000/svg"
 width="514.000000pt" height="436.000000pt" viewBox="0 0 514.000000 436.000000"
 preserveAspectRatio="xMidYMid meet">

<g transform="translate(0.000000,436.000000) scale(0.100000,-0.100000)"
fill="#000000" stroke="none">
<path d="M3227 4169 c-92 -22 -175 -88 -218 -175 l-24 -49 0 -755 0 -755 24
-53 c32 -71 115 -147 183 -167 44 -13 160 -15 804 -15 747 0 754 0 811 22 86
32 155 105 182 193 20 62 21 91 21 402 l0 334 -25 24 c-29 30 -64 32 -96 6
l-24 -19 -5 -354 c-4 -252 -8 -359 -17 -374 -20 -34 -70 -72 -111 -84 -54 -15
-1418 -14 -1479 1 -56 15 -104 61 -121 116 -18 62 -16 1394 2 1446 18 50 42
76 91 98 36 17 72 19 388 19 226 0 355 4 368 11 48 25 43 110 -8 130 -31 12
-695 10 -746 -2z"/>
<path d="M4299 4165 c-46 -25 -46 -100 0 -124 12 -7 106 -11 248 -11 l228 0
-432 -432 c-458 -459 -466 -468 -426 -515 10 -12 31 -25 46 -29 27 -6 53 17
463 427 l434 434 0 -208 c0 -207 0 -208 25 -232 31 -32 69 -32 100 0 l25 24 0
316 0 316 -25 24 -24 25 -318 0 c-256 -1 -323 -4 -344 -15z"/>
<path d="M835 3746 c-335 -84 -620 -158 -633 -165 -13 -7 -32 -27 -42 -44 -20
-31 -20 -65 -20 -1590 0 -1721 -5 -1596 63 -1637 18 -11 46 -20 64 -20 17 0
300 68 628 150 l597 150 522 -156 c861 -258 763 -235 871 -205 39 11 214 58
390 106 176 47 352 94 390 105 39 10 142 37 230 60 88 23 178 50 200 60 79 38
75 -5 75 749 l0 671 -70 0 -70 0 -2 -647 -3 -646 -70 -19 c-38 -10 -297 -79
-574 -153 -278 -73 -508 -132 -513 -129 -4 3 -8 171 -8 375 l0 369 -70 0 -70
0 0 -376 c0 -353 -1 -375 -17 -370 -140 40 -964 286 -1038 309 l-100 32 -3
270 -3 270 -67 53 -67 54 -3 -321 -2 -322 -23 -8 c-17 -7 -524 -136 -1027
-262 -41 -10 -77 -16 -80 -13 -7 7 -7 3001 0 3008 6 5 1102 276 1120 276 7 0
10 -241 10 -768 l0 -767 35 -80 c23 -55 45 -89 70 -108 l35 -29 0 876 c0 482
4 876 9 876 4 0 21 -4 37 -9 16 -6 281 -85 588 -176 308 -92 566 -169 573
-172 10 -4 13 13 13 71 0 71 -2 77 -23 85 -24 9 -597 182 -1014 305 -122 36
-239 66 -260 65 -21 -1 -312 -69 -648 -153z"/>
<path d="M773 3024 c-53 -19 -119 -83 -144 -137 -25 -56 -25 -151 0 -210 37
-87 121 -147 217 -155 l52 -4 132 -292 c229 -502 176 -422 395 -601 105 -86
254 -208 333 -272 141 -114 143 -116 135 -147 -15 -58 -8 -148 15 -192 78
-152 273 -191 398 -81 63 55 87 106 89 191 l3 70 201 112 202 112 57 -31 c47
-26 68 -31 122 -31 36 1 81 8 101 16 52 23 119 86 140 133 23 50 25 164 4 209
-63 133 -218 196 -346 139 -96 -43 -168 -166 -157 -267 l5 -42 -203 -112 -203
-113 -54 31 c-69 39 -137 48 -197 25 -25 -9 -52 -19 -61 -21 -10 -4 -53 26
-115 78 -55 46 -201 167 -325 270 l-224 186 -42 94 c-23 51 -94 205 -157 343
l-114 249 30 35 c109 124 77 312 -68 397 -57 33 -157 42 -221 18z m155 -150
c26 -18 52 -65 52 -94 0 -34 -28 -78 -60 -95 -49 -25 -88 -19 -126 19 -28 28
-34 41 -34 78 1 66 42 107 110 108 20 0 46 -7 58 -16z m2119 -1170 c58 -36 65
-115 16 -166 -73 -77 -206 -14 -189 90 13 82 101 121 173 76z m-863 -478 c60
-25 83 -88 54 -151 -32 -71 -151 -74 -191 -5 -32 53 -13 125 41 154 34 19 54
19 96 2z"/>
</g>
</svg>
